<mxfile host="app.diagrams.net" modified="2024-02-14T01:04:28.657Z" agent="Mozilla/5.0 (Windows NT 10.0; Win64; x64) AppleWebKit/537.36 (KHTML, like Gecko) Chrome/121.0.0.0 Safari/537.36" version="23.1.4" etag="fO_yHCqrRtJFPqj8iNFx" type="github">
  <diagram name="PÃ¡gina-1" id="1rvdpo6ue3FAjVdaws-4">
    <mxGraphModel>
      <root>
        <mxCell id="0" />
        <mxCell id="1" parent="0" />
      </root>
    </mxGraphModel>
  </diagram>
</mxfile>
